# xmcd
#
# Track frame offsets:
#	183
#	22383
#	43533
#	64533
#	80733
#	103233
#	124533
#	143433
#	162933
#	182283
#	202008
#	228033
# Disc length: 3371 seconds
# Revision: 4
# Processed by: cddbd v1.5.1PL2 Copyright (c) Steve Scherf et al.
#
# Submitted via: libkcddb 0.31
#
DISCID=990d290c
DTITLE=Axel Zwingenberger - Boogie Woogie Live
DYEAR=1985
DGENRE=Blues
TTITLE0=Boogie Woogie Be With Me
TTITLE1=Jump And Jive
TTITLE2=April Mood
TTITLE3=Blues For Sippie Wallace
TTITLE4=Sunset Special
TTITLE5=Eldorado Stomp
TTITLE6=In The Heat
TTITLE7=Make Me Call California
TTITLE8=My Style
TTITLE9=Blues On Top
TTITLE10=Boogie du printemps
TTITLE11=Goodnight Blues
EXTD=YEAR: 1985 ID3G: 0
EXTT0=
EXTT1=
EXTT2=
EXTT3=
EXTT4=
EXTT5=
EXTT6=
EXTT7=
EXTT8=
EXTT9=
EXTT10=
EXTT11=
PLAYORDER=
